<?xml version="1.0" standalone="no"?><!DOCTYPE svg PUBLIC "-//W3C//DTD SVG 1.1//EN" "http://www.w3.org/Graphics/SVG/1.1/DTD/svg11.dtd"><svg t="1776407455789" class="icon" viewBox="0 0 1024 1024" version="1.1" xmlns="http://www.w3.org/2000/svg" p-id="113275" xmlns:xlink="http://www.w3.org/1999/xlink" width="200" height="200"><path d="M872.1408 684.8V793.6q0 57.2928-40.8576 97.792-40.6528 40.448-97.8944 40.448h-101.888q-3.5328 0-7.0144-0.6656-3.4304-0.7168-6.656-2.048-3.328-1.3824-6.2464-3.328-2.9184-1.9456-5.4272-4.4544-2.5088-2.5088-4.4544-5.4272-1.9456-2.9184-3.328-6.1952-1.3312-3.2768-2.048-6.7072-0.6656-3.4816-0.6656-7.0144t0.6656-7.0144q0.7168-3.4304 2.048-6.656 1.3824-3.328 3.328-6.2464 1.9456-2.9184 4.4544-5.4272 2.5088-2.5088 5.4272-4.4544 2.9184-1.9456 6.1952-3.328 3.2768-1.3312 6.7072-2.048 3.4816-0.6656 7.0144-0.6656h101.888q27.648 0 47.4112-19.5584 19.6608-19.5584 19.6608-47.0016v-108.8q0-3.5328 0.6656-7.0144 0.7168-3.4304 2.048-6.656 1.3824-3.328 3.328-6.2464 1.9456-2.9184 4.4544-5.4272 2.5088-2.5088 5.4272-4.4544 2.9184-1.9456 6.1952-3.328 3.2768-1.3312 6.7072-2.048 3.4816-0.6656 7.0144-0.6656t7.0144 0.6656q3.4304 0.7168 6.656 2.048 3.328 1.3824 6.2464 3.328 2.9184 1.9456 5.4272 4.4544 2.5088 2.5088 4.4544 5.4272 1.9456 2.9184 3.328 6.1952 1.3312 3.2768 2.048 6.7072 0.6656 3.4816 0.6656 7.0144zM273.152 931.84h64q3.4816 0 6.9632-0.6656 3.4304-0.7168 6.7072-2.048 3.2768-1.3824 6.1952-3.328 2.9184-1.9456 5.4272-4.4544 2.5088-2.5088 4.4544-5.4272 1.9456-2.9184 3.328-6.1952 1.3312-3.2768 2.048-6.7072 0.6656-3.4816 0.6656-7.0144t-0.6656-7.0144q-0.7168-3.4304-2.048-6.656-1.3824-3.328-3.328-6.2464-1.9456-2.9184-4.4544-5.4272-2.5088-2.5088-5.4272-4.4544-2.9184-1.9456-6.1952-3.328-3.2768-1.3312-6.7072-2.048-3.4816-0.6656-7.0144-0.6656H273.152q-27.2896 0-46.848-19.9168-19.712-20.0192-19.712-47.9232l0.0512-263.4752-0.0512-297.1648q0-27.904 19.712-47.9232 19.5584-19.9168 46.848-19.9168h460.8q27.648 0 47.104 19.3536 19.4048 19.3024 19.4048 46.7456V358.4q0 3.5328 0.6656 7.0144 0.7168 3.4304 2.048 6.656 1.3312 3.328 3.328 6.2464 1.9456 2.9184 4.4544 5.4272 2.5088 2.5088 5.4272 4.4544 2.9184 1.9456 6.144 3.328 3.328 1.3312 6.7584 2.048 3.4816 0.6656 7.0144 0.6656t6.9632-0.6656q3.4816-0.7168 6.7584-2.048 3.2256-1.3824 6.144-3.328 2.9696-1.9456 5.4784-4.4544 2.4576-2.5088 4.4544-5.4272 1.9456-2.9184 3.2768-6.1952 1.3824-3.2768 2.048-6.7072 0.7168-3.4816 0.7168-7.0144V229.9392q0-57.2416-40.5504-97.5872-40.448-40.192-97.6384-40.192h-460.8q-57.344 0-97.9968 41.3184-40.2432 40.96-40.2432 98.2016l0.0512 297.1648v263.4752q-0.0512 57.2416 40.2432 98.2016 40.6016 41.3184 97.9456 41.3184z" fill="#436FF6" p-id="113276"></path><path d="M358.4 102.4h308.736a204.8 204.8 0 0 1 204.8 204.8v420.352a204.8 204.8 0 0 1-204.8 204.8H358.4a204.8 204.8 0 0 1-204.8-204.8V307.2a204.8 204.8 0 0 1 204.8-204.8z m-44.288 256a35.84 35.84 0 0 0 35.84 35.84h268.8a35.84 35.84 0 0 0 0-71.68h-268.8a35.84 35.84 0 0 0-35.84 35.84z m189.44 117.76h-153.6a35.84 35.84 0 1 0 0 71.68h153.6a35.84 35.84 0 1 0 0-71.68z" fill="#436FF6" p-id="113277"></path><path d="M870.4 537.6a76.8 76.8 0 0 1-20.3776 52.0704l-307.2 332.8a76.8 76.8 0 1 1-112.8448-104.1408l307.2-332.8A76.8 76.8 0 0 1 870.4 537.6z" fill="#60CDFF" p-id="113278"></path></svg>