<?xml version="1.0" standalone="no"?><!DOCTYPE svg PUBLIC "-//W3C//DTD SVG 1.1//EN" "http://www.w3.org/Graphics/SVG/1.1/DTD/svg11.dtd"><svg t="1776407356480" class="icon" viewBox="0 0 1024 1024" version="1.1" xmlns="http://www.w3.org/2000/svg" p-id="112795" xmlns:xlink="http://www.w3.org/1999/xlink" width="200" height="200"><path d="M512 512m-512 0a512 512 0 1 0 1024 0 512 512 0 1 0-1024 0Z" fill="#00CC57" p-id="112796"></path><path d="M348.706133 770.048V259.413333h-1.2288c-1.911467-0.068267-3.822933 0-5.7344 0.2048-1.911467 0.136533-3.822933 0.4096-5.666133 0.750934-1.911467 0.341333-3.754667 0.8192-5.597867 1.297066-1.8432 0.546133-3.6864 1.160533-5.461333 1.911467-1.774933 0.682667-3.549867 1.501867-5.256533 2.389333-1.706667 0.887467-3.345067 1.8432-4.983467 2.8672-1.570133 1.092267-3.140267 2.184533-4.642133 3.413334-1.501867 1.160533-2.935467 2.4576-4.3008 3.754666-1.365333 1.365333-2.6624 2.798933-3.8912 4.232534-1.2288 1.501867-2.4576 3.003733-3.4816 4.573866-1.092267 1.570133-2.116267 3.208533-3.072 4.9152-0.887467 1.6384-1.774933 3.413333-2.525867 5.188267-0.750933 1.706667-1.365333 3.549867-1.979733 5.393067-0.546133 1.774933-1.092267 3.618133-1.4336 5.5296a53.84192 53.84192 0 0 0-1.297067 11.400533v396.356267a53.84192 53.84192 0 0 0 1.297067 11.400533c0.4096 1.8432 0.887467 3.754667 1.4336 5.5296 0.6144 1.8432 1.297067 3.6864 2.048 5.393067 0.750933 1.774933 1.570133 3.4816 2.525866 5.188266 0.887467 1.706667 1.911467 3.345067 3.003734 4.9152 1.092267 1.570133 2.2528 3.072 3.4816 4.573867 1.2288 1.4336 2.525867 2.8672 3.959466 4.164267a57.296213 57.296213 0 0 0 8.942934 7.168c1.6384 1.092267 3.2768 2.048 4.983466 2.935466s3.413333 1.6384 5.256534 2.389334a55.200427 55.200427 0 0 0 10.990933 3.140266c1.911467 0.341333 3.822933 0.6144 5.7344 0.750934 1.911467 0.2048 3.822933 0.273067 5.7344 0.2048h1.2288c0-0.4096-0.068267-0.8192-0.068267-1.297067zM674.338133 259.413333h-281.941333v510.634667c0 0.477867-0.068267 0.887467-0.136533 1.297067H669.696c1.911467 0.068267 3.822933 0 5.7344-0.2048 1.911467-0.136533 3.822933-0.4096 5.666133-0.750934 1.911467-0.341333 3.754667-0.8192 5.597867-1.365333 1.8432-0.546133 3.6864-1.160533 5.461333-1.8432 1.774933-0.750933 3.549867-1.501867 5.188267-2.389333 1.706667-0.887467 3.413333-1.8432 4.983467-2.935467 1.6384-1.024 3.208533-2.184533 4.642133-3.345067 1.501867-1.2288 2.935467-2.4576 4.369067-3.822933 1.365333-1.365333 2.6624-2.730667 3.8912-4.232533a57.596587 57.596587 0 0 0 6.485333-9.489067c0.887467-1.6384 1.774933-3.413333 2.525867-5.12 0.750933-1.774933 1.4336-3.618133 1.979733-5.393067 0.6144-1.8432 1.092267-3.6864 1.4336-5.597866a53.84192 53.84192 0 0 0 1.297067-11.400534V311.5008c-0.068267-1.774933-0.2048-3.4816-0.4096-5.256533-0.2048-1.706667-0.477867-3.413333-0.887467-5.12a48.605867 48.605867 0 0 0-3.2768-9.966934c-0.682667-1.570133-1.501867-3.140267-2.321067-4.642133-0.887467-1.501867-1.774933-3.003733-2.798933-4.437333-1.024-1.4336-2.116267-2.798933-3.208533-4.164267-1.160533-1.297067-2.389333-2.525867-3.618134-3.754667-1.297067-1.2288-2.594133-2.389333-3.959466-3.413333a48.92672 48.92672 0 0 0-8.8064-5.597867 60.347733 60.347733 0 0 0-4.778667-2.184533c-1.6384-0.6144-3.2768-1.160533-4.983467-1.6384-1.706667-0.477867-3.413333-0.8192-5.12-1.160533-1.706667-0.273067-3.413333-0.477867-5.188266-0.6144a45.056 45.056 0 0 0-5.256534-0.136534z" fill="#FFFFFF" p-id="112797"></path><path d="M653.1072 319.761067V431.445333c0 0.955733-0.2048 1.8432-0.546133 2.6624s-0.8192 1.570133-1.4336 2.2528c-0.682667 0.6144-1.4336 1.160533-2.2528 1.501867-0.887467 0.341333-1.706667 0.546133-2.6624 0.546133s-1.8432-0.2048-2.730667-0.546133l-30.5152-13.175467a6.894933 6.894933 0 0 0-5.461333 0l-30.583467 13.175467c-0.8192 0.341333-1.706667 0.546133-2.594133 0.546133-0.955733 0-1.8432-0.136533-2.6624-0.477866a5.69344 5.69344 0 0 1-2.2528-1.501867c-0.682667-0.6144-1.160533-1.365333-1.570134-2.184533-0.341333-0.887467-0.546133-1.774933-0.546133-2.730667V319.761067h85.8112z" fill="#00CC57" p-id="112798"></path></svg>