<?xml version="1.0" standalone="no"?><!DOCTYPE svg PUBLIC "-//W3C//DTD SVG 1.1//EN" "http://www.w3.org/Graphics/SVG/1.1/DTD/svg11.dtd"><svg t="1776407443878" class="icon" viewBox="0 0 1024 1024" version="1.1" xmlns="http://www.w3.org/2000/svg" p-id="113116" xmlns:xlink="http://www.w3.org/1999/xlink" width="200" height="200"><path d="M512 0S176 0 80 64C5.392 113.728 0 403.2 0 512h512z m0 0s336 0 432 64c74.592 49.744 80 339.2 80 448H512z m0 1024s-336 0-432-64C5.392 910.256 0 620.8 0 512h512z m0 0s336 0 432-64c74.592-49.728 80-339.2 80-448H512z" fill="#17ACCE" p-id="113117"></path><path d="M575.984 218.256l-96 256a263.76 263.76 0 0 0-128-48 339.696 339.696 0 0 0-144 32l80-272a361.6 361.6 0 0 1 176-16c96 16 112 48 112 48z m-96 304l-80 256a264 264 0 0 0-128-48c-69.984-4-160 32-160 32l96-272a280.32 280.32 0 0 1 160-16c96 16 112 48 112 48z m128-288a191.664 191.664 0 0 0 128 48 935.424 935.424 0 0 0 160-16l-80 256a221.36 221.36 0 0 1-160 32c-96-16-128-64-128-64z m-96 304a201.808 201.808 0 0 0 144 64 253.504 253.504 0 0 0 144-32l-64 240s-48 48-160 48a182.4 182.4 0 0 1-144-64z" fill="#F5F5F6" p-id="113118"></path><path d="M840 736a56 56 0 1 1-56 56 56 56 0 0 1 56-56z" fill="#17ACCE" p-id="113119"></path><path d="M840 728a64 64 0 1 1-64 64 64 64 0 0 1 64-64z m0 112a48 48 0 1 0-48-48 48 48 0 0 0 48 48z" fill="#F5F5F6" p-id="113120"></path></svg>