<?xml version="1.0" standalone="no"?><!DOCTYPE svg PUBLIC "-//W3C//DTD SVG 1.1//EN" "http://www.w3.org/Graphics/SVG/1.1/DTD/svg11.dtd"><svg t="1775787065017" class="icon" viewBox="0 0 1024 1024" version="1.1" xmlns="http://www.w3.org/2000/svg" p-id="85565" xmlns:xlink="http://www.w3.org/1999/xlink" width="200" height="200"><path d="M533.333333 597.333333c17.066667 0 32-14.933333 32-32S550.4 533.333333 533.333333 533.333333s-32 14.933333-32 32 14.933333 32 32 32z m0-106.666666c17.066667 0 32-14.933333 32-32S550.4 426.666667 533.333333 426.666667s-32 14.933333-32 32 14.933333 32 32 32z m10.666667 170.666666h-21.333333c-17.066667 0-32 14.933333-32 32s14.933333 32 32 32h21.333333c17.066667 0 32-14.933333 32-32s-14.933333-32-32-32z m264.533333-288C793.6 258.133333 695.466667 170.666667 576 170.666667c-100.266667 0-185.6 61.866667-219.733333 149.333333H341.333333c-70.4 0-130.133333 49.066667-145.066666 115.2C106.666667 460.8 42.666667 544 42.666667 640c0 117.333333 96 213.333333 213.333333 213.333333h490.666667c130.133333-6.4 234.666667-113.066667 234.666666-245.333333 0-110.933333-72.533333-202.666667-172.8-234.666667zM405.333333 725.333333c0 23.466667-19.2 42.666667-42.666666 42.666667h-21.333334c-23.466667 0-42.666667-19.2-42.666666-42.666667V512c0-23.466667 19.2-42.666667 42.666666-42.666667h21.333334c23.466667 0 42.666667 19.2 42.666666 42.666667v213.333333z m213.333334 0c0 23.466667-19.2 42.666667-42.666667 42.666667h-85.333333c-23.466667 0-42.666667-19.2-42.666667-42.666667V426.666667c0-23.466667 19.2-42.666667 42.666667-42.666667h85.333333c23.466667 0 42.666667 19.2 42.666667 42.666667v298.666666z m149.333333 0c0 23.466667-19.2 42.666667-42.666667 42.666667h-21.333333c-23.466667 0-42.666667-19.2-42.666667-42.666667V512c0-23.466667 19.2-42.666667 42.666667-42.666667h21.333333c23.466667 0 42.666667 19.2 42.666667 42.666667v213.333333z" fill="#0d70ff" p-id="85566"></path></svg>