<?xml version="1.0" standalone="no"?><!DOCTYPE svg PUBLIC "-//W3C//DTD SVG 1.1//EN" "http://www.w3.org/Graphics/SVG/1.1/DTD/svg11.dtd"><svg t="1775786050577" class="icon" viewBox="0 0 1050 1024" version="1.1" xmlns="http://www.w3.org/2000/svg" p-id="44891" xmlns:xlink="http://www.w3.org/1999/xlink" width="205.078125" height="200"><path d="M438.241298 385.879454c221.538967 0 395.342438-69.079782 438.241298-159.608995v-33.330732C876.482596 85.692576 678.916521 0 438.241298 0S2.418318 85.692576 2.418318 192.939727v30.912414C45.212034 325.947223 216.702331 385.879454 438.241298 385.879454zM874.064278 278.527159a200.930691 200.930691 0 0 1-90.108636 87.26974 326.788377 326.788377 0 0 1 90.108636 13.353322z" fill="#1890FF" p-id="44892"></path><path d="M587.756443 428.883458a949.978437 949.978437 0 0 1-149.515145 11.565869C219.120649 440.449327 35.74905 369.056371 0 276.108841v152.459184c42.89886 90.529212 221.538967 159.608995 435.82298 159.608995 11.565869 0 23.026594 0 34.382175-0.73601A329.83756 329.83756 0 0 1 587.756443 428.883458z" fill="#1890FF" p-id="44893"></path><path d="M456.431256 642.536605h-18.295102C223.852141 642.957182 42.793716 573.8774 2.313174 483.66362v147.201972c40.480542 90.529212 219.120649 159.608995 435.82298 159.608995h27.86323a327.944964 327.944964 0 0 1-14.089332-94.629839 336.461649 336.461649 0 0 1 4.521204-52.572133z" fill="#1890FF" p-id="44894"></path><path d="M486.817948 841.679844c-15.981928 0.73601-32.174145 1.261731-48.57665 1.261731C223.852141 842.941575 42.89886 773.966937 2.418318 683.437725v140.472738c0 109.770613 195.252901 199.774104 438.241298 199.774104A880.583222 880.583222 0 0 0 654.838484 998.870521a329.83756 329.83756 0 0 1-168.230824-157.085533zM684.06859 640.118287a88.00575 88.00575 0 0 0-19.2414-32.699866A68.448917 68.448917 0 0 0 634.440497 588.807886a142.996201 142.996201 0 0 0-38.377657-3.890338h-74.336995v201.666701h76.545025a126.173118 126.173118 0 0 0 36.064483-4.310915A71.077523 71.077523 0 0 0 662.408872 766.186261a88.426327 88.426327 0 0 0 21.659718-35.643906 131.009755 131.009755 0 0 0 6.098368-42.793716 148.568847 148.568847 0 0 0-6.518945-47.630352z m-39.639388 82.748537a42.057706 42.057706 0 0 1-10.514426 19.451689 36.905637 36.905637 0 0 1-16.402506 8.306397 113.766095 113.766095 0 0 1-24.603758 1.997741h-30.491837v-133.533217h18.295102a186.10535 186.10535 0 0 1 33.330732 1.997741 39.429099 39.429099 0 0 1 18.925968 9.462984 45.737755 45.737755 0 0 1 11.460725 19.451689 118.287298 118.287298 0 0 1 4.205771 35.959339 132.692063 132.692063 0 0 1-4.205771 36.905637zM884.158127 697.737345a52.572133 52.572133 0 0 0-28.283807-18.295102 47.314919 47.314919 0 0 0 28.283807-43.634871 45.527467 45.527467 0 0 0-6.203512-23.657459 51.415546 51.415546 0 0 0-15.771639-16.823083 53.833864 53.833864 0 0 0-21.028853-8.306397 237.62604 237.62604 0 0 0-35.643906-1.997741H725.495431v201.561557h68.554061c25.865489 0 42.057706-0.73601 49.102372-1.47202a57.19848 57.19848 0 0 0 27.232364-9.462984 54.044152 54.044152 0 0 0 17.453948-21.028853 59.196221 59.196221 0 0 0 5.888079-26.496355 48.786939 48.786939 0 0 0-10.514426-30.386692z m-118.182154-79.173632h23.342027c19.136256 0 30.80727 0 34.802752 0.73601a23.236883 23.236883 0 0 1 15.351062 7.044666 22.606017 22.606017 0 0 1 5.152069 15.035629 21.028853 21.028853 0 0 1-5.993223 15.77164 27.022076 27.022076 0 0 1-16.402505 7.360099c-3.890338 0-13.773899 0.73601-29.545539 0.630865h-26.706643z m80.435363 124.701099a24.814047 24.814047 0 0 1-14.615053 8.096108 205.977616 205.977616 0 0 1-27.86323 1.261731h-37.95708v-53.939008H799.096416a138.264709 138.264709 0 0 1 36.064483 2.94404 24.814047 24.814047 0 0 1 12.722457 9.147551 26.811788 26.811788 0 0 1 3.785193 15.456207 24.498614 24.498614 0 0 1-5.782934 17.033371zM1050.286066 786.584249H914.755108a91.790944 91.790944 0 0 1 13.248178-38.587945 253.082247 253.082247 0 0 1 43.424581-48.366363 271.061916 271.061916 0 0 0 31.54328-32.910155 42.057706 42.057706 0 0 0 7.88582-23.552315 26.496355 26.496355 0 0 0-6.939522-19.872266 29.440394 29.440394 0 0 0-38.377657 0 37.536503 37.536503 0 0 0-8.306396 24.183181l-38.482802-3.785194a63.086559 63.086559 0 0 1 21.659719-45.842899 72.023822 72.023822 0 0 1 45.317178-13.773899 65.399733 65.399733 0 0 1 46.894343 15.981928 53.097854 53.097854 0 0 1 17.033371 40.059965 70.236369 70.236369 0 0 1-4.941781 25.86549A103.567101 103.567101 0 0 1 1030.4138 692.059554a241.83181 241.83181 0 0 1-25.234623 25.655201c-12.196735 11.145292-19.872266 18.610535-23.131739 22.290584a61.824828 61.824828 0 0 0-7.990964 10.514427h76.860458v35.854194z" fill="#1890FF" p-id="44895"></path></svg>