<?xml version="1.0" standalone="no"?><!DOCTYPE svg PUBLIC "-//W3C//DTD SVG 1.1//EN" "http://www.w3.org/Graphics/SVG/1.1/DTD/svg11.dtd"><svg t="1775785856305" class="icon" viewBox="0 0 1024 1024" version="1.1" xmlns="http://www.w3.org/2000/svg" p-id="40337" xmlns:xlink="http://www.w3.org/1999/xlink" width="200" height="200"><path d="M0 512C0 229.216 229.216 0 512 0s512 229.216 512 512-229.216 512-512 512S0 794.784 0 512z" fill="#74C23D" p-id="40338"></path><path d="M256 246.496h544v544H256v-544z" fill="#FFFFFF" fill-opacity="0" p-id="40339"></path><path d="M362.688 298.656h330.688c15.2 0 27.584 12.32 27.584 27.584v55.072a27.584 27.584 0 0 1-27.584 27.584H362.688a27.584 27.584 0 0 1-27.584-27.584V326.24c0-15.2 12.32-27.584 27.584-27.584z m64.256 27.584a27.584 27.584 0 1 0 0.032 55.168 27.584 27.584 0 0 0 0-55.168zM362.688 464.032h330.688c15.2 0 27.584 12.352 27.584 27.584v55.104a27.584 27.584 0 0 1-27.584 27.552H362.688a27.584 27.584 0 0 1-27.584-27.552V491.552a27.52 27.52 0 0 1 27.584-27.52z m64.256 27.52a27.584 27.584 0 1 0 0.032 55.168 27.584 27.584 0 0 0 0-55.168z m-64.256 137.824h330.688c15.2 0 27.584 12.32 27.584 27.552v55.104a27.584 27.584 0 0 1-27.584 27.584H362.688a27.584 27.584 0 0 1-27.584-27.584v-55.104a27.52 27.52 0 0 1 27.584-27.552z m64.256 27.552a27.584 27.584 0 1 0 0 55.168 27.584 27.584 0 0 0 0-55.168z" fill="#FFFFFF" p-id="40340"></path></svg>