<?xml version="1.0" standalone="no"?><!DOCTYPE svg PUBLIC "-//W3C//DTD SVG 1.1//EN" "http://www.w3.org/Graphics/SVG/1.1/DTD/svg11.dtd"><svg t="1775786377094" class="icon" viewBox="0 0 1024 1024" version="1.1" xmlns="http://www.w3.org/2000/svg" p-id="54728" xmlns:xlink="http://www.w3.org/1999/xlink" width="200" height="200"><path d="M887.4 564H136.6c-39.3 0-71.2 33.4-71.2 74.7V788c0 41.2 31.9 74.7 71.2 74.7h750.7c39.3 0 71.2-33.4 71.2-74.7V638.7c0.1-41.3-31.8-74.7-71.1-74.7zM431.1 748.8H197.4c-19.5 0-35.8-16-35.5-35.5 0-19.5 16-35.5 35.5-35.5h233.7c19.5 0 35.5 16 35.5 35.5s-16 35.5-35.5 35.5zM887.4 161.3H136.6c-39.3 0-71.2 33.4-71.2 74.7v149.3c0 41.2 31.9 74.7 71.2 74.7h750.7c39.3 0 71.2-33.4 71.2-74.7V236c0.1-41.2-31.8-74.7-71.1-74.7zM431.1 346.1H197.4c-19.5 0-35.8-16-35.5-35.5 0-19.5 16-35.5 35.5-35.5h233.7c19.5 0 35.5 16 35.5 35.5s-16 35.5-35.5 35.5z" fill="#4AB379" p-id="54729"></path></svg>