<?xml version="1.0" standalone="no"?><!DOCTYPE svg PUBLIC "-//W3C//DTD SVG 1.1//EN" "http://www.w3.org/Graphics/SVG/1.1/DTD/svg11.dtd"><svg t="1775786775100" class="icon" viewBox="0 0 1024 1024" version="1.1" xmlns="http://www.w3.org/2000/svg" p-id="72860" xmlns:xlink="http://www.w3.org/1999/xlink" width="200" height="200"><path d="M811.84 255.95H212.35c-46.57 0-84.33 37.76-84.33 84.33v407.11c0 46.57 37.76 84.33 84.33 84.33h599.49c46.57 0 84.33-37.76 84.33-84.33V340.28c0-46.57-37.75-84.33-84.33-84.33zM362.82 575.9c0 16.29-1.95 28.9-5.84 37.84-3.89 8.94-10.06 15.76-18.5 20.45-8.44 4.69-18.35 7.04-29.72 7.04-16.88 0-29.8-4.91-38.77-14.74-8.97-9.82-13.27-24.43-12.92-43.81l22.96-3.19c0.61 14.87 3.37 25.05 8.27 30.54 4.9 5.49 11.68 8.23 20.34 8.23 6.38 0 11.89-1.48 16.53-4.45 4.63-2.96 7.83-6.99 9.58-12.08s2.62-13.21 2.62-24.36v-134.1h25.45V575.9z m122.68 62h-26.11l-74.52-194.63h27.55l49.99 141.39c4.02 11.33 7.39 21.95 10.1 31.86 2.97-10.62 6.43-21.24 10.36-31.86l51.95-141.39h25.98L485.5 637.9z m280.89 0h-24.53V475l-55.89 162.9h-22.96l-55.63-165.69V637.9h-24.53V443.27h38.31l45.53 137.81c4.2 12.83 7.26 22.44 9.18 28.81 2.19-7.08 5.6-17.48 10.23-31.2l46.05-135.42h34.24V637.9z" fill="#1890FF" p-id="72861"></path><path d="M811.84 833.22H212.35c-47.33 0-85.83-38.5-85.83-85.83V340.28c0-47.33 38.5-85.83 85.83-85.83h599.49c47.33 0 85.83 38.5 85.83 85.83v407.11c0 47.33-38.5 85.83-85.83 85.83zM212.35 257.45c-45.67 0-82.83 37.16-82.83 82.83v407.11c0 45.67 37.16 82.83 82.83 82.83h599.49c45.67 0 82.83-37.16 82.83-82.83V340.28c0-45.67-37.16-82.83-82.83-82.83H212.35z m96.42 385.27c-17.24 0-30.66-5.12-39.88-15.23-9.19-10.07-13.67-25.16-13.31-44.85l0.02-1.28 25.87-3.59 0.07 1.65c0.59 14.45 3.25 24.4 7.89 29.6 4.58 5.13 11.04 7.73 19.22 7.73 6.07 0 11.36-1.42 15.72-4.21 4.32-2.76 7.34-6.57 8.97-11.31 1.69-4.91 2.54-12.94 2.54-23.87V441.77h28.45V575.9c0 16.42-2.01 29.35-5.96 38.44-4.01 9.21-10.45 16.33-19.15 21.16-8.63 4.79-18.88 7.22-30.45 7.22z m-50.21-58.74c-0.13 18.27 4.09 32.22 12.55 41.49 8.63 9.45 21.3 14.25 37.66 14.25 11.06 0 20.81-2.3 28.99-6.85 8.11-4.5 14.11-11.14 17.85-19.73 3.79-8.71 5.71-21.24 5.71-37.24V444.77h-22.45v132.59c0 11.42-0.88 19.55-2.71 24.85-1.86 5.39-5.28 9.72-10.19 12.86-4.86 3.11-10.69 4.68-17.34 4.68-9.07 0-16.29-2.94-21.46-8.73-5-5.6-7.81-15.36-8.57-29.82l-20.04 2.78z m509.33 55.42h-27.53V483.99L687.04 639.4h-25.11l-0.34-1.02-52.71-156.99V639.4h-27.53V441.77h40.89l45.87 138.84c3.27 10 5.88 18.11 7.78 24.22 2.14-6.74 5.09-15.66 8.8-26.62l46.4-136.44h36.82V639.4z m-24.53-3h21.53V444.77h-31.67l-45.71 134.4c-4.61 13.65-8.05 24.14-10.22 31.16l-1.45 4.69-1.42-4.7c-1.92-6.35-5-16.03-9.17-28.78l-45.18-136.77h-35.73V636.4h21.53V463.03l58.21 173.37h20.81L743.35 466v170.4z m-256.84 3h-28.17l-75.67-197.63h30.79l50.34 142.39c3.34 9.41 6.26 18.42 8.7 26.88 2.63-8.94 5.63-17.97 8.94-26.9l52.31-142.37h29.21L486.52 639.4z m-26.1-3h24.05l74.15-191.63h-22.74l-51.59 140.41c-3.91 10.55-7.39 21.24-10.33 31.75l-1.46 5.22-1.43-5.23c-2.69-9.82-6.08-20.51-10.07-31.76l-49.63-140.4h-24.31l73.36 191.64z" fill="#1890FF" p-id="72862"></path></svg>