<?xml version="1.0" standalone="no"?><!DOCTYPE svg PUBLIC "-//W3C//DTD SVG 1.1//EN" "http://www.w3.org/Graphics/SVG/1.1/DTD/svg11.dtd"><svg t="1775786324759" class="icon" viewBox="0 0 1217 1024" version="1.1" xmlns="http://www.w3.org/2000/svg" p-id="53605" xmlns:xlink="http://www.w3.org/1999/xlink" width="237.6953125" height="200"><path d="M974.183784 563.559784a222.512432 222.512432 0 0 0-97.418379 23.109189l-126.284108-188.360649c46.882595-41.845622 77.215135-102.455351 76.467892-170.288432-0.719568-125.564541-103.174919-228.047568-228.739459-227.300324-126.284108 0-227.300324 103.174919-227.300325 228.739459 0 67.833081 30.996757 127.723243 77.934703 169.596541l-124.125405 189.772108c-29.612973-13.699459-62.796108-22.361946-97.418379-22.361946C101.735784 567.185297 0 669.640649 0.719568 795.924757c0.719568 125.564541 103.174919 227.328 228.739459 226.608432 114.743351-0.747243 208.563892-86.624865 223.702487-197.023135l297.319783-1.439135a228.019892 228.019892 0 0 0 225.833514 195.556324c125.592216-0.719568 227.328-103.174919 227.328-229.459027-1.439135-125.564541-103.922162-227.328-229.459027-226.608432z m-224.44973 197.023135l-297.292108 1.439135a228.988541 228.988541 0 0 0-74.336865-137.824865l124.125405-189.799784c29.612973 13.727135 62.796108 22.361946 97.418379 22.361946a217.420108 217.420108 0 0 0 97.418378-23.081513l126.284108 188.332973a233.638054 233.638054 0 0 0-73.617297 138.572108z" fill="#007BFC" p-id="53606"></path></svg>