<?xml version="1.0" standalone="no"?><!DOCTYPE svg PUBLIC "-//W3C//DTD SVG 1.1//EN" "http://www.w3.org/Graphics/SVG/1.1/DTD/svg11.dtd"><svg t="1775786081406" class="icon" viewBox="0 0 1025 1024" version="1.1" xmlns="http://www.w3.org/2000/svg" p-id="45713" xmlns:xlink="http://www.w3.org/1999/xlink" width="200.1953125" height="200"><path d="M915.533476 754.003141c59.568879 0 107.735617-48.239829 107.735618-107.735618V107.735617C1023.269094 48.166738 975.029265 0 915.533476 0H107.735617C48.166738 0 0 48.239829 0 107.735617v538.531906c0 59.495789 48.239829 107.735617 107.735617 107.735618h350.104212v80.765167h-94.286938a40.346039 40.346039 0 0 0-40.419129 40.41913v13.448679H40.419129a40.346039 40.346039 0 1 0 0 80.765168H323.060671v13.448679c0 22.365739 18.05339 40.419129 40.419129 40.41913h269.265953a40.346039 40.346039 0 0 0 40.419129-40.41913v-13.448679h309.611992a40.346039 40.346039 0 1 0 0-80.765168H673.237973v-13.448679a40.346039 40.346039 0 0 0-40.419129-40.41913h-94.286938v-80.765167h377.00157zM273.066667 537.947181a40.126767 40.126767 0 0 1-30.698073 14.033404 40.199857 40.199857 0 0 1-30.698073-66.512491l161.530336-188.573876a40.199857 40.199857 0 0 1 54.671805-6.139614l172.347752 126.300642 177.464097-201.145467a40.49222 40.49222 0 0 1 60.592149 53.575446L636.327195 498.405139a40.419129 40.419129 0 0 1-54.087081 5.993433L410.330906 378.317202l-137.410421 159.703069z" fill="#3099FC" p-id="45714"></path></svg>