<?xml version="1.0" standalone="no"?><!DOCTYPE svg PUBLIC "-//W3C//DTD SVG 1.1//EN" "http://www.w3.org/Graphics/SVG/1.1/DTD/svg11.dtd"><svg t="1775786005086" class="icon" viewBox="0 0 1024 1024" version="1.1" xmlns="http://www.w3.org/2000/svg" p-id="43643" xmlns:xlink="http://www.w3.org/1999/xlink" width="200" height="200"><path d="M996.32 56.48a129.44 129.44 0 0 0-28.8-28.8A136.16 136.16 0 0 0 885.6 0H138.4a136.8 136.8 0 0 0-82.24 27.68 130.08 130.08 0 0 0-28.96 28.8A138.72 138.72 0 0 0 0 138.56v747.04a135.2 135.2 0 0 0 27.68 81.92 129.44 129.44 0 0 0 28.8 28.8A136.16 136.16 0 0 0 138.4 1024h747.2a135.2 135.2 0 0 0 81.92-27.68 129.44 129.44 0 0 0 28.8-28.8A136.16 136.16 0 0 0 1024 885.6V138.56a139.2 139.2 0 0 0-27.68-82.08z" fill="#FFFFFF" p-id="43644"></path><path d="M438.08 528.96H496L465.12 480l-55.52 88.32H384l67.52-105.76a16 16 0 0 1 13.12-6.88 16 16 0 0 1 13.12 6.72l67.84 105.92h-24.96l-11.84-19.68h-58.08l-12.64-19.68zM700.8 548.64v-91.84h-21.44v100.8a10.88 10.88 0 0 0 3.04 7.52 11.2 11.2 0 0 0 7.84 3.2h97.92l12.64-19.68zM345.76 532.16a37.76 37.76 0 0 0 0-75.36h-93.92v112h21.44v-92.32h71.04a17.76 17.76 0 0 1 12.8 5.28 17.92 17.92 0 0 1 0 25.44 17.76 17.76 0 0 1-12.8 5.28h-60.48l64 55.84h32L336 532.16zM184.64 456.8h-64a55.84 55.84 0 1 0 0 112h64a55.84 55.84 0 1 0 0-112z m24.16 81.28a36.64 36.64 0 0 1-25.6 10.56H121.28a36.16 36.16 0 0 1 0-72.16h61.92A36 36 0 0 1 219.36 512a36.32 36.32 0 0 1-10.56 26.08zM590.72 568.32a55.84 55.84 0 0 1-48.8-83.84 55.2 55.2 0 0 1 48.8-27.68h77.12L656 476.48h-64a36.16 36.16 0 1 0 0 72.16h77.28l-12.48 19.68zM853.12 548.64a36.32 36.32 0 0 1-34.72-26.24h91.84l12.64-19.68h-104.48a36.16 36.16 0 0 1 34.72-26.24h63.04l12.64-19.68h-77.12a55.84 55.84 0 0 0 0 112h66.24l12.64-19.68zM951.52 464a5.44 5.44 0 0 0-2.56 0h-0.8v4h1.76a2.72 2.72 0 0 0 2.4 0 3.04 3.04 0 0 0 0-1.28 1.92 1.92 0 0 0-0.8-2.72z" fill="#FF0000" p-id="43645"></path><path d="M950.08 458.72a9.92 9.92 0 0 0 0 19.84 9.92 9.92 0 1 0 0-19.84z m2.88 16l-2.88-5.44h-1.92v5.28h-2.72v-13.92h3.52a11.04 11.04 0 0 1 3.68 0 3.84 3.84 0 0 1 2.72 4 3.2 3.2 0 0 1 0 1.12 3.36 3.36 0 0 1-1.76 2.4l3.36 5.92zM252.48 424.96a137.6 137.6 0 0 1 106.24-50.24h305.12a136.64 136.64 0 0 1 106.08 50.24h105.6a229.12 229.12 0 0 0-211.68-141.76H358.72a228.96 228.96 0 0 0-211.68 141.76zM769.92 599.04a136.64 136.64 0 0 1-106.08 50.24H358.72a137.12 137.12 0 0 1-106.08-50.24h-105.6a228.96 228.96 0 0 0 211.68 141.76h305.12a229.12 229.12 0 0 0 211.68-141.76z" fill="#FF0000" p-id="43646"></path></svg>