<?xml version="1.0" standalone="no"?><!DOCTYPE svg PUBLIC "-//W3C//DTD SVG 1.1//EN" "http://www.w3.org/Graphics/SVG/1.1/DTD/svg11.dtd"><svg t="1775786620696" class="icon" viewBox="0 0 1024 1024" version="1.1" xmlns="http://www.w3.org/2000/svg" p-id="70447" xmlns:xlink="http://www.w3.org/1999/xlink" width="200" height="200"><path d="M550.580495 9.108838l4.550153 2.502584 368.562397 212.719655c26.732149 15.47052 43.226454 44.022731 43.226454 74.906895v425.609941a86.452908 86.452908 0 0 1-43.226454 74.850017l-368.562397 212.776532a86.452908 86.452908 0 0 1-86.452908 0L100.115343 799.69793A86.452908 86.452908 0 0 1 56.888889 724.847913V299.181095c0-30.884164 16.494305-59.436374 43.226454-74.850018L468.67774 11.611422A86.452908 86.452908 0 0 1 550.580495 9.108838zM483.465737 102.955744L178.832991 278.705406a22.750765 22.750765 0 0 0 0.682523 39.813839L485.172045 481.244094a56.876913 56.876913 0 0 0 53.464298 0L844.292874 318.519245a22.750765 22.750765 0 0 0 0.682523-39.813839L540.342651 102.955744a56.876913 56.876913 0 0 0-56.876914 0z" fill="#0d70ff" p-id="70448"></path></svg>