<?xml version="1.0" standalone="no"?><!DOCTYPE svg PUBLIC "-//W3C//DTD SVG 1.1//EN" "http://www.w3.org/Graphics/SVG/1.1/DTD/svg11.dtd"><svg t="1775786180743" class="icon" viewBox="0 0 1316 1024" version="1.1" xmlns="http://www.w3.org/2000/svg" p-id="48567" xmlns:xlink="http://www.w3.org/1999/xlink" width="257.03125" height="200"><path d="M666.624 190.1568a795.9552 795.9552 0 0 0 20.48 157.5424s103.9616 273.2544 302.6944 344.4224a564.5056 564.5056 0 0 0 146.432-171.008l9.8048-17.92q6.4256-12.3392 12.2624-25.1136l7.9104-17.92a682.9056 682.9056 0 0 0 51.712-279.04h0.2816c0-28.16-8.192-147.3792-22.8864-179.968-39.7056 16.7424-112.4096 70.5536-128.7424 125.5936a729.6 729.6 0 0 0-244.6848 3.3024c-13.0816-59.2128-78.1568-104.6784-127.1296-130.0736-20.7104 38.4-29.952 127.3856-27.4944 190.464-0.2816-0.5888-0.5376-0.2816-0.5376-0.2816z m0 0" fill="#088AFF" p-id="48568"></path><path d="M1297.024 963.0208a149.6576 149.6576 0 0 0-114.8672-44.2624c-18.7648-24.5504-104.96-126.1824-157.3376-186.5984l-26.9568 19.7376-23.3984-8.3712c-217.7536-77.7472-328.2688-362.9568-332.8-374.9376l-1.3568-3.584-0.5376-2.3808A1039.104 1039.104 0 0 0 229.2992 634.3936l-15.7952 18.2528c-7.68 8.96-14.6688 17.6384-21.76 26.2912C80.9728 814.3872 0.1024 960.2816 0.1024 984.192v12.544h145.92l-2.56-14.9248a208.512 208.512 0 0 1 41.9072-152.2176 202.0608 202.0608 0 0 1 111.0784-74.7264c45.1584-17.92 164.1216-3.584 164.1216-3.584 235.1616 23.04 459.9808 127.0528 713.984 272.64h139.6224l1.8944-10.24a69.4784 69.4784 0 0 0-19.0464-50.7904z m0 0" fill="#088AFF" p-id="48569"></path><path d="M567.2448 869.4272a73.856 73.856 0 0 0-67.7632-4.7872 166.912 166.912 0 0 1-32.1024-66.3808l-6.8096-0.8704a733.9008 733.9008 0 0 0-126.5664-4.1984 1623.2704 1623.2704 0 0 0 142.8736 123.1616h108.3648v-12.544a42.0864 42.0864 0 0 0-17.92-34.3808zM186.4704 609.8432l10.0608-11.6736a65.8176 65.8176 0 0 1 6.2464-6.8864 363.0592 363.0592 0 0 1-47.104-132.4544 205.6704 205.6704 0 0 1 35.4048-149.4784c47.6416-64.8704 115.2-69.376 184.5248-56.5248a51.8912 51.8912 0 0 0 4.352 30.72c18.2528 29.8752 117.0688 40.3456 176.128 11.3408-43.52-66.9696-131.4816-99.5328-155.9808-86.3744a43.6992 43.6992 0 0 0-18.2016 21.504 335.7696 335.7696 0 0 0-65.3568-8.0384 168.6016 168.6016 0 0 0-143.1808 71.68 230.4 230.4 0 0 0-40.2688 168.6016 400.512 400.512 0 0 0 53.3504 147.4048z m0 0" fill="#088AFF" p-id="48570"></path></svg>