<?xml version="1.0" standalone="no"?><!DOCTYPE svg PUBLIC "-//W3C//DTD SVG 1.1//EN" "http://www.w3.org/Graphics/SVG/1.1/DTD/svg11.dtd"><svg t="1775786692468" class="icon" viewBox="0 0 1030 1024" version="1.1" xmlns="http://www.w3.org/2000/svg" p-id="71004" xmlns:xlink="http://www.w3.org/1999/xlink" width="201.171875" height="200"><path d="M857.6 0H448c-89.6 0-166.4 70.4-166.4 166.4v115.2H172.8C76.8 281.6 6.4 352 6.4 448v409.6c0 89.6 70.4 166.4 166.4 166.4h409.6c96 0 166.4-70.4 166.4-166.4V742.4H864c96 0 166.4-70.4 166.4-166.4V160C1024 76.8 953.6 0 857.6 0z m44.8 576c0 25.6-19.2 44.8-44.8 44.8H627.2v236.8c0 25.6-19.2 44.8-44.8 44.8H172.8c-25.6-6.4-44.8-25.6-44.8-51.2V441.6c0-25.6 19.2-44.8 44.8-44.8h230.4V166.4c0-25.6 19.2-44.8 44.8-44.8h409.6c25.6 0 44.8 19.2 44.8 44.8V576z" fill="#8FBE48" p-id="71005"></path><path d="M518.4 230.4v268.8H243.2v275.2h275.2V505.6h275.2V230.4H518.4z" fill="#F2B624" p-id="71006"></path></svg>