<?xml version="1.0" standalone="no"?><!DOCTYPE svg PUBLIC "-//W3C//DTD SVG 1.1//EN" "http://www.w3.org/Graphics/SVG/1.1/DTD/svg11.dtd"><svg t="1775785907059" class="icon" viewBox="0 0 1024 1024" version="1.1" xmlns="http://www.w3.org/2000/svg" p-id="40834" xmlns:xlink="http://www.w3.org/1999/xlink" width="200" height="200"><path d="M512.2 64C264.7 63.9 64.1 264.4 64 511.8 63.9 759.3 264.4 959.9 511.8 960S959.9 759.6 960 512.2v-0.2c-0.3-247.2-200.6-447.6-447.8-448z m0 832.3c-108.2 0-211.5-45.7-284.1-125.9 2.9-8.6 22.1-63.9 34.9-89.5 11.1-23.4 28.1-43.5 49.2-58.4 30.7-27.6-61.5-40-83-61.5-17.9-15-36.9-28.8-56.8-41-18.4-14.6-29 50-33.3 83.5-26.5-107.2-5.3-220.6 58-311-12.2 37.9-23.2 93.3 24.4 76.5 52.2-18.4 56.9-39.9 56.9-39.9l30.7-53.8c1.2 28.9 4.8 57.7 10.8 85.9 6.1 10.7 30.7 41.5 39.9-1.5 16.9-79.1 19.8-101.4 49-101.4s89.3-23.1 95.5 47.6c6.2 70.7-6.2 29.2-44.6 47.6-38.4 18.4-47.6 83-12.3 90.7 39.1 11.2 77.6 24.5 115.3 40l40 44.6 12.3 47.7s7.7 53.8 7.7 58.4v49.2s1.5 96.8 36.9 73.7c35.3-23 132.1-173.7 112.2-230.5s-21.5-63 15.3-83 63-44.6 61.5-72.2c-0.4-14.6 0-29.3 1.1-43.9 101.6 186.3 33 419.6-153.2 521.3-56.7 30.6-120 46.8-184.3 46.8z" fill="#17D285" p-id="40835"></path></svg>