<?xml version="1.0" standalone="no"?><!DOCTYPE svg PUBLIC "-//W3C//DTD SVG 1.1//EN" "http://www.w3.org/Graphics/SVG/1.1/DTD/svg11.dtd"><svg t="1775786190672" class="icon" viewBox="0 0 1024 1024" version="1.1" xmlns="http://www.w3.org/2000/svg" p-id="48964" xmlns:xlink="http://www.w3.org/1999/xlink" width="200" height="200"><path d="M512 1024C229.248 1024 0 794.752 0 512S229.248 0 512 0s512 229.248 512 512-229.248 512-512 512zM300.416 594.944s268.586667 30.037333 374.144 85.76c105.514667 55.722667 199.082667 62.890667 102.869333-10.112-96.213333-73.002667-321.578667-154.666667-477.013333-75.648z m415.232-258.176c-125.44-51.797333-277.418667-38.528-349.738667-19.925333-72.32 18.56-222.293333 80.256-229.674666 158.592-4.096 43.946667 22.442667 75.136 61.653333 97.152-0.768-2.474667-1.450667-4.864-2.218667-7.210667l-4.565333-14.378667 12.672-8.277333a469.077333 469.077333 0 0 1 115.626667-53.418667 546.005333 546.005333 0 0 1 166.997333-24.576l11.562667-10.026666-61.610667-5.461334 2.730667-17.066666 106.666666 12.458666-25.173333 21.376c13.354667 0.853333 26.794667 2.304 40.106667 4.096a74.24 74.24 0 0 1 25.984-14.464c23.338667-8.021333 56.32 2.986667 71.04 30.293334 1.365333 2.56 2.56 5.162667 3.498666 7.808a401.066667 401.066667 0 0 1 26.709334 10.453333c5.376-5.802667 15.488-13.184 28.245333-13.013333 14.293333 0.170667 30.122667 10.368 37.248 18.048 6.485333 7.210667 17.877333 24.32 19.584 43.989333 2.218667 1.706667 4.437333 3.370667 6.570667 5.077333 39.466667 31.402667 57.472 59.050667 58.154666 60.245334l4.864 7.637333-2.474666 8.618667a40.149333 40.149333 0 0 1-2.816 7.125333c28.16-16.085333 63.061333-43.733333 73.6-85.589333 18.474667-73.642667-69.76-167.850667-195.242667-219.562667z m54.784 239.829333c-4.48 13.098667-14.506667 22.528-32.213333 23.04-25.301333 0.682667-46.037333-22.613333-55.637334-41.514666a52.736 52.736 0 0 1-3.669333-36.138667 521.514667 521.514667 0 0 0-13.866667-5.546667c-0.597333 18.474667-10.453333 35.157333-29.781333 40.405334-29.866667 8.021333-61.013333-5.333333-77.226667-25.088-7.850667-9.6-14.464-26.709333-9.301333-43.136a572.757333 572.757333 0 0 0-50.176-3.754667l-38.144 32.341333 68.010667 7.381334-3.669334 17.450666-114.176-11.52 52.565334-45.568c-108.885333 3.925333-195.669333 39.978667-248.490667 74.453334 0 0 17.28 54.528 15.914667 65.706666 0 0 4.778667-3.328 30.378666-11.605333l-4.522666-18.56 34.986666-17.834667c45.056-22.826667 97.92-34.474667 157.184-34.474666 132.736 0 269.696 58.026667 340.821334 112.042666 2.730667 2.048 5.290667 4.096 7.893333 6.144 10.24-10.410667 21.12-23.04 23.594667-31.488-0.085333 0-15.488-24.234667-50.474667-52.736zM640 522.496c6.101333-13.44 1.578667-27.904-8.106667-38.741333-9.685333-10.88-28.928-12.16-36.906666-9.514667a35.712 35.712 0 0 0-21.034667 20.053333c-3.968 10.752-0.682667 32.682667 21.205333 41.984 21.930667 9.344 38.826667-0.341333 44.842667-13.781333z m105.728 52.224c11.904-11.093333 9.514667-25.514667 7.253333-34.730667-2.218667-9.173333-10.496-25.258667-26.88-28.330666-16.341333-3.114667-24.789333 13.781333-24.789333 13.781333-3.498667 9.130667-4.010667 24.618667 4.266667 37.717333 8.234667 13.098667 28.245333 22.784 40.149333 11.562667z" fill="#8797A1" p-id="48965"></path></svg>